# xmcd CD database file
#
# Track frame offsets:
#	150
#	20122
#	39847
#	67176
#	80825
#	103494
#	120005
#	144763
#	164410
#	183959
#	204400
#	220698
#
# Disc length: 3266 seconds
#
# Revision: 0
# Processed by: cddbd v1.5.2PL0 Copyright (c) Steve Scherf et al.
# Submitted via: CDex 1.70beta2
#
DISCID=a40cc00c
DTITLE=Blue Chamber - Arms of the Blues
DYEAR=1900
DGENRE=Blues
TTITLE0=Good Man Blues
TTITLE1=Make Time Count
TTITLE2=Reap What You Sow
TTITLE3=How Long?
TTITLE4=Tell Me
TTITLE5=When the Sun Goes Down
TTITLE6=Arms Of The Blues
TTITLE7=Low Down Dirty Shame
TTITLE8=Call It Quits
TTITLE9=When I'm Gone
TTITLE10=You Upset Me Baby
TTITLE11=Black Coffee
EXTD=
EXTT0=
EXTT1=
EXTT2=
EXTT3=
EXTT4=
EXTT5=
EXTT6=
EXTT7=
EXTT8=
EXTT9=
EXTT10=
EXTT11=
PLAYORDER=
